<svg xmlns="http://www.w3.org/2000/svg" height="256" width="256" viewBox="0 0 45 45" role="img"><path fill="#FFFFFF" d="M0,0 h45v45H0z" shape-rendering="crispEdges"/><path fill="#000000" d="M0 0h7v1H0zM9 0h1v1H9zM11 0h2v1H11zM14 0h7v1H14zM23 0h1v1H23zM25 0h1v1H25zM30 0h1v1H30zM36 0h1v1H36zM38,0 h7v1H38zM0 1h1v1H0zM6 1h1v1H6zM8 1h3v1H8zM13 1h2v1H13zM18 1h5v1H18zM25 1h2v1H25zM28 1h1v1H28zM30 1h4v1H30zM35 1h1v1H35zM38 1h1v1H38zM44,1 h1v1H44zM0 2h1v1H0zM2 2h3v1H2zM6 2h1v1H6zM8 2h2v1H8zM11 2h1v1H11zM13 2h1v1H13zM20 2h6v1H20zM31 2h1v1H31zM33 2h1v1H33zM35 2h1v1H35zM38 2h1v1H38zM40 2h3v1H40zM44,2 h1v1H44zM0 3h1v1H0zM2 3h3v1H2zM6 3h1v1H6zM8 3h1v1H8zM13 3h2v1H13zM16 3h2v1H16zM19 3h3v1H19zM25 3h3v1H25zM29 3h1v1H29zM31 3h1v1H31zM33 3h1v1H33zM35 3h2v1H35zM38 3h1v1H38zM40 3h3v1H40zM44,3 h1v1H44zM0 4h1v1H0zM2 4h3v1H2zM6 4h1v1H6zM8 4h1v1H8zM12 4h5v1H12zM20 4h5v1H20zM26 4h1v1H26zM30 4h1v1H30zM34 4h3v1H34zM38 4h1v1H38zM40 4h3v1H40zM44,4 h1v1H44zM0 5h1v1H0zM6 5h1v1H6zM8 5h2v1H8zM11 5h1v1H11zM13 5h1v1H13zM15 5h1v1H15zM19 5h2v1H19zM24 5h1v1H24zM26 5h1v1H26zM28 5h1v1H28zM30 5h4v1H30zM38 5h1v1H38zM44,5 h1v1H44zM0 6h7v1H0zM8 6h1v1H8zM10 6h1v1H10zM12 6h1v1H12zM14 6h1v1H14zM16 6h1v1H16zM18 6h1v1H18zM20 6h1v1H20zM22 6h1v1H22zM24 6h1v1H24zM26 6h1v1H26zM28 6h1v1H28zM30 6h1v1H30zM32 6h1v1H32zM34 6h1v1H34zM36 6h1v1H36zM38,6 h7v1H38zM9 7h1v1H9zM16 7h3v1H16zM20 7h1v1H20zM24 7h2v1H24zM28 7h1v1H28zM30 7h1v1H30zM32 7h4v1H32zM2 8h1v1H2zM5 8h4v1H5zM17 8h1v1H17zM19 8h6v1H19zM28 8h1v1H28zM30 8h3v1H30zM37 8h1v1H37zM39 8h5v1H39zM1 9h3v1H1zM5 9h1v1H5zM8 9h1v1H8zM12 9h3v1H12zM16 9h1v1H16zM18 9h1v1H18zM20 9h5v1H20zM26 9h1v1H26zM28 9h2v1H28zM31 9h1v1H31zM33 9h1v1H33zM35 9h1v1H35zM37 9h1v1H37zM39 9h4v1H39zM44,9 h1v1H44zM0 10h1v1H0zM2 10h2v1H2zM5 10h2v1H5zM8 10h1v1H8zM11 10h2v1H11zM15 10h8v1H15zM27 10h2v1H27zM31 10h2v1H31zM36 10h2v1H36zM42,10 h3v1H42zM1 11h5v1H1zM10 11h1v1H10zM14 11h3v1H14zM22 11h1v1H22zM26 11h5v1H26zM32 11h1v1H32zM35 11h1v1H35zM40 11h2v1H40zM43 11h1v1H43zM0 12h3v1H0zM5 12h3v1H5zM9 12h1v1H9zM12 12h1v1H12zM15 12h1v1H15zM17 12h2v1H17zM25 12h1v1H25zM27 12h1v1H27zM29 12h1v1H29zM32 12h1v1H32zM34 12h1v1H34zM37 12h5v1H37zM44,12 h1v1H44zM0 13h3v1H0zM4 13h2v1H4zM8 13h3v1H8zM12 13h1v1H12zM14 13h1v1H14zM19 13h2v1H19zM22 13h1v1H22zM24 13h2v1H24zM27 13h3v1H27zM31 13h3v1H31zM35 13h1v1H35zM39 13h1v1H39zM42 13h1v1H42zM44,13 h1v1H44zM0 14h1v1H0zM2 14h1v1H2zM6 14h1v1H6zM8 14h3v1H8zM13 14h1v1H13zM15 14h3v1H15zM19 14h1v1H19zM22 14h2v1H22zM25 14h1v1H25zM27 14h1v1H27zM29 14h1v1H29zM31 14h2v1H31zM36 14h1v1H36zM40 14h3v1H40zM44,14 h1v1H44zM0 15h2v1H0zM3 15h1v1H3zM5 15h1v1H5zM7 15h1v1H7zM9 15h2v1H9zM12 15h2v1H12zM18 15h1v1H18zM20 15h2v1H20zM23 15h2v1H23zM29 15h2v1H29zM32 15h2v1H32zM35 15h7v1H35zM44,15 h1v1H44zM0 16h7v1H0zM8 16h3v1H8zM14 16h1v1H14zM16 16h2v1H16zM24 16h2v1H24zM27 16h2v1H27zM30 16h3v1H30zM35 16h1v1H35zM37 16h1v1H37zM40 16h1v1H40zM43,16 h2v1H43zM4 17h2v1H4zM7 17h2v1H7zM10 17h1v1H10zM12 17h2v1H12zM15 17h1v1H15zM18 17h1v1H18zM20 17h1v1H20zM23 17h2v1H23zM27 17h1v1H27zM32 17h2v1H32zM35 17h1v1H35zM37 17h1v1H37zM40 17h3v1H40zM44,17 h1v1H44zM2 18h1v1H2zM4 18h3v1H4zM11 18h5v1H11zM18 18h1v1H18zM22 18h1v1H22zM26 18h4v1H26zM31 18h3v1H31zM35 18h1v1H35zM37 18h1v1H37zM42,18 h3v1H42zM0 19h2v1H0zM3 19h1v1H3zM5 19h1v1H5zM7 19h2v1H7zM14 19h1v1H14zM25 19h3v1H25zM29 19h2v1H29zM32 19h1v1H32zM40 19h2v1H40zM43 19h1v1H43zM0 20h1v1H0zM2 20h1v1H2zM4 20h6v1H4zM12 20h1v1H12zM16 20h1v1H16zM19 20h7v1H19zM28 20h1v1H28zM32 20h1v1H32zM35 20h7v1H35zM44,20 h1v1H44zM0 21h2v1H0zM3 21h2v1H3zM8 21h1v1H8zM11 21h1v1H11zM16 21h2v1H16zM20 21h1v1H20zM24 21h1v1H24zM26 21h1v1H26zM31 21h3v1H31zM35 21h2v1H35zM40 21h2v1H40zM44,21 h1v1H44zM0 22h2v1H0zM3 22h2v1H3zM6 22h1v1H6zM8 22h1v1H8zM10 22h5v1H10zM16 22h5v1H16zM22 22h1v1H22zM24 22h1v1H24zM26 22h2v1H26zM29 22h4v1H29zM35 22h2v1H35zM38 22h1v1H38zM40 22h1v1H40zM42 22h1v1H42zM44,22 h1v1H44zM4 23h1v1H4zM8 23h1v1H8zM11 23h1v1H11zM13 23h3v1H13zM19 23h2v1H19zM24 23h1v1H24zM28 23h2v1H28zM32 23h1v1H32zM36 23h1v1H36zM40 23h2v1H40zM1 24h1v1H1zM3 24h9v1H3zM15 24h2v1H15zM18 24h7v1H18zM27 24h2v1H27zM32 24h1v1H32zM36 24h6v1H36zM43,24 h2v1H43zM1 25h1v1H1zM3 25h1v1H3zM10 25h2v1H10zM13 25h1v1H13zM16 25h1v1H16zM20 25h1v1H20zM22 25h4v1H22zM30 25h3v1H30zM35 25h5v1H35zM41 25h2v1H41zM44,25 h1v1H44zM0 26h1v1H0zM2 26h1v1H2zM5 26h3v1H5zM9 26h1v1H9zM15 26h2v1H15zM18 26h1v1H18zM20 26h2v1H20zM23 26h2v1H23zM27 26h3v1H27zM31 26h3v1H31zM37 26h2v1H37zM40 26h1v1H40zM42 26h1v1H42zM44,26 h1v1H44zM1 27h2v1H1zM7 27h2v1H7zM10 27h3v1H10zM14 27h1v1H14zM16 27h1v1H16zM19 27h1v1H19zM21 27h3v1H21zM25 27h1v1H25zM27 27h3v1H27zM31 27h2v1H31zM35 27h5v1H35zM41 27h1v1H41zM43 27h1v1H43zM0 28h2v1H0zM6 28h1v1H6zM8 28h3v1H8zM14 28h1v1H14zM16 28h6v1H16zM23 28h2v1H23zM29 28h1v1H29zM31 28h2v1H31zM34 28h2v1H34zM41 28h1v1H41zM43,28 h2v1H43zM0 29h1v1H0zM3 29h1v1H3zM8 29h2v1H8zM17 29h1v1H17zM19 29h3v1H19zM25 29h1v1H25zM28 29h4v1H28zM33 29h1v1H33zM37 29h1v1H37zM39 29h1v1H39zM44,29 h1v1H44zM3 30h2v1H3zM6 30h9v1H6zM16 30h1v1H16zM22 30h1v1H22zM26 30h1v1H26zM28 30h1v1H28zM35 30h2v1H35zM38 30h3v1H38zM42 30h1v1H42zM44,30 h1v1H44zM0 31h2v1H0zM4 31h2v1H4zM7 31h2v1H7zM11 31h1v1H11zM13 31h1v1H13zM16 31h1v1H16zM19 31h1v1H19zM23 31h5v1H23zM29 31h1v1H29zM31 31h3v1H31zM35 31h5v1H35zM41 31h1v1H41zM1 32h1v1H1zM3 32h6v1H3zM10 32h3v1H10zM14 32h1v1H14zM19 32h2v1H19zM23 32h1v1H23zM27 32h1v1H27zM29 32h1v1H29zM32 32h4v1H32zM39 32h1v1H39zM44,32 h1v1H44zM0 33h3v1H0zM4 33h2v1H4zM8 33h2v1H8zM11 33h1v1H11zM14 33h3v1H14zM20 33h3v1H20zM25 33h1v1H25zM27 33h2v1H27zM30 33h1v1H30zM32 33h2v1H32zM35 33h2v1H35zM38 33h2v1H38zM41 33h1v1H41zM43,33 h2v1H43zM4 34h1v1H4zM6 34h2v1H6zM9 34h4v1H9zM14 34h1v1H14zM16 34h3v1H16zM24 34h1v1H24zM26 34h1v1H26zM29 34h1v1H29zM31 34h3v1H31zM35 34h2v1H35zM38 34h2v1H38zM41 34h2v1H41zM44,34 h1v1H44zM1 35h4v1H1zM7 35h1v1H7zM9 35h2v1H9zM13 35h2v1H13zM20 35h1v1H20zM22 35h2v1H22zM28 35h6v1H28zM35 35h1v1H35zM38 35h1v1H38zM40 35h2v1H40zM44,35 h1v1H44zM0 36h1v1H0zM3 36h2v1H3zM6 36h3v1H6zM10 36h4v1H10zM17 36h1v1H17zM20 36h5v1H20zM26 36h3v1H26zM32 36h1v1H32zM34 36h7v1H34zM44,36 h1v1H44zM8 37h2v1H8zM15 37h6v1H15zM24 37h1v1H24zM26 37h1v1H26zM31 37h3v1H31zM35 37h2v1H35zM40 37h2v1H40zM44,37 h1v1H44zM0 38h7v1H0zM8 38h2v1H8zM11 38h1v1H11zM13 38h2v1H13zM17 38h4v1H17zM22 38h1v1H22zM24 38h2v1H24zM28 38h1v1H28zM30 38h1v1H30zM33 38h1v1H33zM36 38h1v1H36zM38 38h1v1H38zM40 38h1v1H40zM44,38 h1v1H44zM0 39h1v1H0zM6 39h1v1H6zM8 39h3v1H8zM14 39h3v1H14zM20 39h1v1H20zM24 39h2v1H24zM28 39h1v1H28zM30 39h1v1H30zM32 39h2v1H32zM36 39h1v1H36zM40 39h2v1H40zM0 40h1v1H0zM2 40h3v1H2zM6 40h1v1H6zM9 40h1v1H9zM12 40h1v1H12zM14 40h1v1H14zM17 40h1v1H17zM20 40h5v1H20zM26 40h4v1H26zM32 40h10v1H32zM44,40 h1v1H44zM0 41h1v1H0zM2 41h3v1H2zM6 41h1v1H6zM13 41h1v1H13zM16 41h3v1H16zM20 41h1v1H20zM22 41h1v1H22zM25 41h2v1H25zM28 41h1v1H28zM30 41h1v1H30zM32 41h1v1H32zM35 41h2v1H35zM38 41h4v1H38zM0 42h1v1H0zM2 42h3v1H2zM6 42h1v1H6zM8 42h1v1H8zM14 42h1v1H14zM19 42h2v1H19zM25 42h9v1H25zM36 42h2v1H36zM40 42h1v1H40zM42 42h1v1H42zM44,42 h1v1H44zM0 43h1v1H0zM6 43h1v1H6zM15 43h1v1H15zM17 43h3v1H17zM22 43h1v1H22zM24 43h4v1H24zM32 43h4v1H32zM39 43h1v1H39zM0 44h7v1H0zM10 44h1v1H10zM12 44h1v1H12zM15 44h1v1H15zM20 44h1v1H20zM22 44h1v1H22zM28 44h2v1H28zM32 44h2v1H32zM36 44h2v1H36zM40 44h2v1H40zM44,44 h1v1H44z" shape-rendering="crispEdges"/></svg>